<svg xmlns="http://www.w3.org/2000/svg" width="16" height="16" viewBox="0 0 16 16">
  <path fill="currentColor" fill-rule="evenodd" d="M13.7 10c.476.01.78.042 1.04.148c.49.203.879.592 1.08 1.08c.152.368.152.834.152 1.77s0 1.4-.152 1.77c-.203.49-.592.879-1.08 1.08c-.368.152-.834.152-1.77.152h-1c-.932 0-1.4 0-1.77-.152a2 2 0 0 1-.735-.525c-.2.226-.45.407-.735.525C8.362 16 7.897 16 6.96 16h-2c-.932 0-1.4 0-1.77-.152a2 2 0 0 1-1.08-1.08c-.152-.368-.152-.834-.152-1.77s0-1.4.152-1.77q.051-.124.118-.239c-.476-.01-.78-.042-1.04-.148a2 2 0 0 1-1.08-1.08c-.152-.368-.152-.833-.152-1.77s0-1.4.152-1.77a2 2 0 0 1 1.184-1.118a2 2 0 0 1-.187-.35c-.152-.367-.152-.832-.152-1.77s0-1.4.152-1.77c.203-.49.592-.878 1.08-1.08c.368-.151.833-.151 1.77-.151h2c.932 0 1.4 0 1.77.152c.284.118.535.298.735.525c.2-.227.45-.407.735-.525c.368-.152.833-.152 1.77-.152h2c.932 0 1.4 0 1.77.152c.49.203.879.592 1.08 1.08c.152.368.152.833.152 1.77s0 1.4-.152 1.77c-.203.49-.592.879-1.08 1.08c-.256.106-.56.138-1.04.148q.067.114.118.239c.152.368.152.833.152 1.77s0 1.4-.152 1.77a2 2 0 0 1-.118.239zM3.97 1h2c.48 0 .789 0 1.03.017c.228.015.315.042.356.06c.245.1.44.295.541.54c.017.042.044.128.06.356c.016.237.016.547.016 1.03s0 .79-.017 1.03c-.015.228-.042.315-.059.356a1 1 0 0 1-.541.541c-.042.017-.128.044-.356.06c-.237.016-.547.016-1.03.016h-2c-.48 0-.789 0-1.03-.016c-.228-.016-.315-.043-.356-.06a1 1 0 0 1-.541-.54c-.017-.042-.044-.129-.06-.357c-.016-.237-.016-.547-.016-1.03s0-.789.017-1.03c.015-.228.042-.315.059-.356a1 1 0 0 1 .541-.54c.042-.018.128-.045.356-.06C3.177 1 3.487 1 3.97 1m7 4h2c.48 0 .789 0 1.03-.017c.228-.015.315-.042.356-.06a1 1 0 0 0 .541-.54c.017-.042.044-.128.06-.356c.016-.237.016-.547.016-1.03s0-.79-.017-1.03c-.015-.228-.042-.315-.059-.356a1 1 0 0 0-.541-.541c-.042-.017-.128-.044-.356-.06a17 17 0 0 0-1.03-.016h-2c-.48 0-.789 0-1.03.016c-.228.016-.315.043-.356.06a1 1 0 0 0-.541.54c-.017.042-.044.129-.06.357c-.016.237-.016.547-.016 1.03s0 .789.017 1.03c.015.228.042.315.059.356c.101.245.296.44.541.54c.042.018.128.045.356.06c.237.017.547.017 1.03.017m-5 3c0 .48 0 .789-.017 1.03c-.015.228-.042.315-.06.356a1 1 0 0 1-.54.541c-.042.017-.128.044-.356.06c-.237.016-.547.016-1.03.016h-1c-.48 0-.79 0-1.03-.017c-.228-.015-.315-.042-.356-.059a1 1 0 0 1-.541-.541c-.017-.042-.044-.128-.06-.356C.964 8.793.964 8.483.964 8s0-.789.016-1.03c.016-.228.043-.315.06-.356a1 1 0 0 1 .54-.541c.042-.017.129-.044.357-.06c.237-.016.547-.016 1.03-.016h1c.48 0 .789 0 1.03.017c.228.015.315.042.356.059c.245.101.44.296.54.541c.018.042.045.128.06.356c.016.237.017.547.017 1.03m5-2h-2c-.48 0-.789 0-1.03.017c-.228.015-.315.042-.356.06a1 1 0 0 0-.541.54c-.017.042-.044.128-.06.356c-.016.237-.016.547-.016 1.03s0 .79.017 1.03c.015.228.042.315.059.356c.101.245.296.44.541.541c.042.017.128.044.356.06c.237.016.547.016 1.03.016h2c.48 0 .789 0 1.03-.017c.228-.015.315-.042.356-.059a1 1 0 0 0 .541-.54c.017-.043.044-.129.06-.357c.016-.237.016-.547.016-1.03s0-.789-.017-1.03c-.015-.228-.042-.315-.059-.356a1 1 0 0 0-.541-.54c-.042-.018-.128-.045-.356-.06A17 17 0 0 0 10.97 6m-7.03 5.02c.237-.016.547-.017 1.03-.017h2c.48 0 .789 0 1.03.017c.228.016.315.042.356.06a1 1 0 0 1 .541.54c.017.042.044.128.06.356c.016.237.016.547.016 1.03s0 .79-.017 1.03c-.015.228-.042.315-.059.356a1 1 0 0 1-.541.541c-.042.018-.128.044-.356.06c-.237.016-.547.016-1.03.016h-2c-.48 0-.789 0-1.03-.016c-.228-.016-.315-.042-.356-.06a1 1 0 0 1-.541-.54c-.017-.042-.044-.129-.06-.357c-.016-.237-.016-.547-.016-1.03s0-.789.017-1.03c.015-.228.042-.315.059-.356a1 1 0 0 1 .541-.54c.042-.018.128-.044.356-.06M9.97 13c0 .48 0 .789.017 1.03c.015.228.042.315.06.356a1 1 0 0 0 .54.541c.042.017.128.044.356.06c.237.016.547.016 1.03.016h1c.48 0 .79 0 1.03-.017c.228-.015.315-.042.356-.059a1 1 0 0 0 .541-.541c.017-.042.044-.128.06-.356c.016-.237.016-.547.016-1.03s0-.789-.017-1.03c-.015-.228-.042-.315-.059-.356a1 1 0 0 0-.54-.541c-.043-.017-.129-.044-.357-.06a17 17 0 0 0-1.03-.016h-1c-.48 0-.789 0-1.03.017c-.228.015-.315.042-.356.059a1 1 0 0 0-.54.541c-.018.042-.045.128-.06.356c-.017.237-.017.547-.017 1.03" clip-rule="evenodd"/>
</svg>
